<?xml version="1.0" encoding="utf-8"?>
<!-- Generator: Adobe Illustrator 27.6.1, SVG Export Plug-In . SVG Version: 6.00 Build 0)  -->
<svg version="1.1" id="Layer_1" xmlns="http://www.w3.org/2000/svg" xmlns:xlink="http://www.w3.org/1999/xlink" x="0px" y="0px"
	 viewBox="0 0 130 72" style="enable-background:new 0 0 130 72;" xml:space="preserve">
<style type="text/css">
	.st0{fill:#548D69;}
</style>
<g>
	<path class="st0" d="M36.85,47.63c2.38-0.68,3.8-1.9,4.48-2.55c1.46-1.36,3.53-4.04,3.53-8.97c0-3.02-0.88-6.25-3.02-8.46
		c-0.78-0.82-1.56-1.29-1.94-1.53c-2.62-1.63-5.13-1.9-8.12-1.9H2.37v23.98h28.65C34.1,48.21,35.36,48.07,36.85,47.63z M8.34,28.47
		h23.21c1.87,0,2.62,0.14,3.5,0.44c0.82,0.31,1.39,0.71,1.63,0.92c2.24,1.9,2.21,5.54,2.21,6.11c0,4.72-1.8,6.79-3.91,7.54
		c-1.46,0.54-3.36,0.48-3.7,0.48H8.34V28.47z"/>
	<path class="st0" d="M66.39,39.17h1.12c2.11,0,4.55-0.07,6.42-1.19c0.82-0.51,1.32-1.09,1.56-1.36c0.54-0.61,0.78-1.12,0.92-1.46
		c0.65-1.39,0.68-2.92,0.68-3.43c0-2.11-0.61-3.57-1.05-4.28c-1.32-2.28-3.67-3.02-6.15-3.19c-0.61-0.03-1.22-0.03-1.83-0.03h-7.57
		v23.98h5.91V39.17z M66.39,28.37h1.19c0.82,0,1.09,0.03,1.49,0.17c1.94,0.58,2.04,2.68,2.04,3.19c0,0.58-0.03,2.21-1.66,2.89
		c-0.82,0.34-2.04,0.34-2.92,0.34h-0.14V28.37z"/>
	<rect x="49.06" y="24.22" class="st0" width="6.01" height="23.98"/>
	<polygon class="st0" points="117.56,43.93 86.07,43.93 86.07,38.22 116.34,38.22 116.34,33.94 86.07,33.94 86.07,28.54 
		116.88,28.54 116.88,24.22 80.06,24.22 80.06,48.21 117.56,48.21 	"/>
	<path class="st0" d="M4.82,11.3h1.77c0.7,0,1.05-0.06,1.33-0.32c0.44-0.4,0.46-1.05,0.46-2.17V6.25c0-0.57,0.04-1.31-0.34-1.79
		C7.58,3.87,6.69,3.95,6.55,3.95H3.09V17.4h1.73V11.3z M4.84,5.59h1.09c0.55,0,0.67,0.17,0.67,0.67v2.86c0,0.46-0.15,0.59-0.63,0.59
		H4.84V5.59z"/>
	<path class="st0" d="M10.97,17.36c0.46,0.17,0.97,0.17,1.12,0.17c0.4,0,2.15,0.02,2.72-1.56c0.19-0.51,0.23-1.07,0.23-1.58v-6.4
		c0-1.51-0.02-2.21-0.4-2.88c-0.08-0.15-0.27-0.46-0.61-0.72c-0.67-0.53-1.47-0.53-1.75-0.53c-0.95,0-1.52,0.34-1.85,0.59
		c-1.05,0.8-1.05,1.96-1.05,3.16v6.71c0,0.76,0.02,1.01,0.13,1.41C9.81,16.77,10.61,17.23,10.97,17.36z M11.6,5.59
		c0.25-0.17,0.55-0.19,0.65-0.19c0.48,0,0.7,0.23,0.82,0.4c0.21,0.32,0.21,0.84,0.21,1.66v6.78c0,0.8,0.06,1.83-1.09,1.83
		c-0.91,0-1.03-0.69-1.03-1.41v-7.2C11.16,6.44,11.13,5.89,11.6,5.59z"/>
	<path class="st0" d="M18.95,17.65c0.59,0,0.95-0.11,1.18-0.21c1.5-0.69,1.49-2.71,1.49-2.99c0-0.78-0.11-1.79-1.05-3.26
		c-0.19-0.3-0.38-0.59-0.59-0.88c-0.27-0.4-0.53-0.78-0.78-1.18c-0.59-0.93-0.9-1.56-0.9-2.69c0-0.63,0.02-1.37,0.88-1.37
		c0.74,0,0.69,0.76,0.7,0.91v2.38h1.62V5.99c0-0.53-0.06-0.76-0.13-1.01c-0.42-1.31-1.77-1.3-2.13-1.3c-0.76,0-1.24,0.19-1.52,0.36
		c-0.55,0.32-1.2,1.11-1.2,2.59c0,1.56,0.74,2.71,1.03,3.16c0.51,0.86,1.12,1.64,1.62,2.51c0.5,0.84,0.65,1.37,0.65,2.34
		c0,0.61,0.02,1.56-0.86,1.58c-0.29,0-0.46-0.11-0.53-0.17c-0.29-0.19-0.38-0.48-0.38-1.12v-2.46H16.4v2.23
		c0,0.78,0.04,1.51,0.59,2.13C17.28,17.19,17.87,17.65,18.95,17.65z"/>
	<polygon class="st0" points="24.38,17.4 26.19,17.4 26.19,5.53 28.29,5.53 28.29,3.95 22.35,3.95 22.35,5.53 24.38,5.53 	"/>
	<path class="st0" d="M30.14,17.11c0.57,0.48,1.22,0.5,1.49,0.5c1.01,0,1.41-0.5,1.66-0.84l0.17,0.63h1.07v-7.16h-2.84v1.64h1.09
		v3.05c0,0.36-0.02,0.82-0.38,1.07c-0.21,0.13-0.42,0.13-0.51,0.13c-0.46,0.02-0.67-0.27-0.74-0.42c-0.11-0.23-0.13-0.65-0.13-1.2
		V6.77c0-0.44-0.04-1.05,0.36-1.33c0.1-0.08,0.27-0.15,0.53-0.15c0.8-0.02,0.78,0.72,0.8,0.93c0,0.13,0.02,0.29,0.02,0.42v1.52h1.64
		V6.75c0-1.14-0.08-1.58-0.44-2.08C33.28,3.8,32.29,3.8,31.95,3.8c-1.68,0-2.27,1.03-2.48,1.66c-0.19,0.53-0.23,1.03-0.23,2.13v6.74
		C29.24,15.34,29.28,16.39,30.14,17.11z"/>
	<path class="st0" d="M37.78,11.17h0.59l1.49,6.23h1.81l-1.64-6.44c0.99-0.25,1.28-0.78,1.28-2.42V6.56c0-1.22-0.13-1.73-0.53-2.13
		c-0.3-0.3-0.82-0.48-1.5-0.48H36V17.4h1.77V11.17z M37.79,5.57h0.97c0.3,0,0.48,0.04,0.57,0.11c0.08,0.06,0.13,0.23,0.15,0.34
		c0.02,0.13,0.04,0.4,0.04,0.78v1.31c0,1.2-0.15,1.43-0.95,1.43h-0.78V5.57z"/>
	<path class="st0" d="M44.12,14.92h2.02l0.34,2.48h1.73L46.14,3.95h-2.15l-1.9,13.45h1.73L44.12,14.92z M45.05,6.29l0.86,6.99h-1.6
		L45.05,6.29z"/>
	<path class="st0" d="M54.27,16.18c0.06-0.25,0.1-0.55,0.1-1.1V6.12c0-0.65-0.02-1.3-0.57-1.77c-0.53-0.46-1.31-0.4-1.49-0.4h-3.26
		V17.4h3.41C52.86,17.4,53.99,17.47,54.27,16.18z M52.01,15.74h-1.18V5.59h1.03c0.15,0,0.63-0.02,0.7,0.53
		c0.02,0.13,0.02,0.27,0.02,0.4V15C52.58,15.63,52.41,15.74,52.01,15.74z"/>
	<path class="st0" d="M58.56,17.61c0.53,0,2.23-0.1,2.72-1.87c0.17-0.63,0.17-1.49,0.17-1.6V3.95H59.7v10.29
		c0,0.9-0.02,1.37-0.4,1.7c-0.25,0.21-0.57,0.21-0.69,0.21c-1.09,0-1.07-1.03-1.07-1.79V3.95h-1.73v10.5c0,0.82,0.08,1.2,0.23,1.58
		C56.6,17.51,58.08,17.61,58.56,17.61z"/>
	<path class="st0" d="M64.35,14.92h2.02l0.34,2.48h1.73L66.37,3.95h-2.15l-1.9,13.45h1.73L64.35,14.92z M65.28,6.29l0.86,6.99h-1.6
		L65.28,6.29z"/>
	<polygon class="st0" points="70.79,17.4 72.6,17.4 72.6,5.53 74.69,5.53 74.69,3.95 68.75,3.95 68.75,5.53 70.79,5.53 	"/>
	<polygon class="st0" points="80.12,15.7 77.49,15.7 77.49,11.24 79.84,11.24 79.84,9.57 77.47,9.57 77.47,5.63 80.12,5.63 
		80.12,3.95 75.68,3.95 75.68,17.4 80.12,17.4 	"/>
	<path class="st0" d="M87.17,17.65c0.59,0,0.95-0.11,1.18-0.21c1.5-0.69,1.49-2.71,1.49-2.99c0-0.78-0.11-1.79-1.05-3.26
		c-0.19-0.3-0.38-0.59-0.59-0.88c-0.27-0.4-0.53-0.78-0.78-1.18c-0.59-0.93-0.9-1.56-0.9-2.69c0-0.63,0.02-1.37,0.88-1.37
		c0.74,0,0.69,0.76,0.7,0.91v2.38h1.62V5.99c0-0.53-0.06-0.76-0.13-1.01c-0.42-1.31-1.77-1.3-2.13-1.3c-0.76,0-1.24,0.19-1.52,0.36
		c-0.55,0.32-1.2,1.11-1.2,2.59c0,1.56,0.74,2.71,1.03,3.16c0.51,0.86,1.12,1.64,1.62,2.51c0.5,0.84,0.65,1.37,0.65,2.34
		c0,0.61,0.02,1.56-0.86,1.58c-0.29,0-0.46-0.11-0.53-0.17c-0.29-0.19-0.38-0.48-0.38-1.12v-2.46h-1.64v2.23
		c0,0.78,0.04,1.51,0.59,2.13C85.49,17.19,86.08,17.65,87.17,17.65z"/>
	<polygon class="st0" points="92.6,17.4 94.41,17.4 94.41,5.53 96.5,5.53 96.5,3.95 90.56,3.95 90.56,5.53 92.6,5.53 	"/>
	<path class="st0" d="M100.2,17.61c0.53,0,2.23-0.1,2.72-1.87c0.17-0.63,0.17-1.49,0.17-1.6V3.95h-1.75v10.29
		c0,0.9-0.02,1.37-0.4,1.7c-0.25,0.21-0.57,0.21-0.69,0.21c-1.09,0-1.07-1.03-1.07-1.79V3.95h-1.73v10.5c0,0.82,0.08,1.2,0.23,1.58
		C98.24,17.51,99.72,17.61,100.2,17.61z"/>
	<path class="st0" d="M109.8,16.18c0.06-0.25,0.1-0.55,0.1-1.1V6.12c0-0.65-0.02-1.3-0.57-1.77c-0.53-0.46-1.31-0.4-1.49-0.4h-3.26
		V17.4h3.41C108.39,17.4,109.51,17.47,109.8,16.18z M107.53,15.74h-1.18V5.59h1.03c0.15,0,0.63-0.02,0.7,0.53
		c0.02,0.13,0.02,0.27,0.02,0.4V15C108.11,15.63,107.93,15.74,107.53,15.74z"/>
	<rect x="111.29" y="3.95" class="st0" width="1.75" height="13.45"/>
	<polygon class="st0" points="119,15.7 116.37,15.7 116.37,11.24 118.72,11.24 118.72,9.57 116.35,9.57 116.35,5.63 119,5.63 
		119,3.95 114.56,3.95 114.56,17.4 119,17.4 	"/>
	<path class="st0" d="M122.49,17.65c0.59,0,0.95-0.11,1.18-0.21c1.5-0.69,1.49-2.71,1.49-2.99c0-0.78-0.11-1.79-1.05-3.26
		c-0.19-0.3-0.38-0.59-0.59-0.88c-0.27-0.4-0.53-0.78-0.78-1.18c-0.59-0.93-0.9-1.56-0.9-2.69c0-0.63,0.02-1.37,0.88-1.37
		c0.74,0,0.69,0.76,0.7,0.91v2.38h1.62V5.99c0-0.53-0.06-0.76-0.13-1.01c-0.42-1.31-1.77-1.3-2.13-1.3c-0.76,0-1.24,0.19-1.52,0.36
		c-0.55,0.32-1.2,1.11-1.2,2.59c0,1.56,0.74,2.71,1.03,3.16c0.51,0.86,1.12,1.64,1.62,2.51c0.5,0.84,0.65,1.37,0.65,2.34
		c0,0.61,0.02,1.56-0.86,1.58c-0.29,0-0.46-0.11-0.53-0.17c-0.29-0.19-0.38-0.48-0.38-1.12v-2.46h-1.64v2.23
		c0,0.78,0.04,1.51,0.59,2.13C120.81,17.19,121.4,17.65,122.49,17.65z"/>
	<path class="st0" d="M129.47,0H-0.42v20.08v0.9v30.03v0.9V72h64.58V51.92h60.06V20.98h5.25V0z M63.26,71.1H0.48V51.92h62.77V71.1z
		 M123.32,51.02H64.16H0.48V20.98h122.83V51.02z M128.56,20.08h-4.34H0.48V0.9h128.08V20.08z"/>
	<polygon class="st0" points="7.52,66.62 4.89,66.62 4.89,62.16 7.23,62.16 7.23,60.49 4.87,60.49 4.87,56.54 7.52,56.54 
		7.52,54.87 3.08,54.87 3.08,68.32 7.52,68.32 	"/>
	<path class="st0" d="M11.01,68.56c0.59,0,0.95-0.11,1.18-0.21c1.5-0.69,1.49-2.71,1.49-2.99c0-0.78-0.11-1.79-1.05-3.26
		c-0.19-0.3-0.38-0.59-0.59-0.88c-0.27-0.4-0.53-0.78-0.78-1.18c-0.59-0.93-0.9-1.56-0.9-2.69c0-0.63,0.02-1.37,0.88-1.37
		c0.74,0,0.69,0.76,0.7,0.91v2.38h1.62v-2.38c0-0.53-0.06-0.76-0.13-1.01c-0.42-1.31-1.77-1.3-2.13-1.3c-0.76,0-1.24,0.19-1.52,0.36
		c-0.55,0.32-1.2,1.11-1.2,2.59c0,1.56,0.74,2.71,1.03,3.16c0.51,0.86,1.12,1.64,1.62,2.51c0.5,0.84,0.65,1.37,0.65,2.34
		c0,0.61,0.02,1.56-0.86,1.58c-0.29,0-0.46-0.11-0.53-0.17c-0.29-0.19-0.38-0.48-0.38-1.12V63.4H8.45v2.23
		c0,0.78,0.04,1.51,0.59,2.13C9.33,68.11,9.92,68.56,11.01,68.56z"/>
	<polygon class="st0" points="19.43,66.62 16.8,66.62 16.8,62.16 19.14,62.16 19.14,60.49 16.78,60.49 16.78,56.54 19.43,56.54 
		19.43,54.87 14.99,54.87 14.99,68.32 19.43,68.32 	"/>
	<polygon class="st0" points="25.27,66.66 22.34,66.66 22.34,54.87 20.57,54.87 20.57,68.32 25.27,68.32 	"/>
	<polygon class="st0" points="26.87,68.32 28.09,64.26 29.1,68.32 30.7,68.32 28.95,62.79 30.53,58.11 29.01,58.11 28.11,61.73 
		27.18,58.11 25.66,58.11 27.24,62.83 25.39,68.32 	"/>
	<rect x="34.93" y="61.97" class="st0" width="3.37" height="1.6"/>
	<rect x="43.07" y="54.87" class="st0" width="1.75" height="13.45"/>
	<path class="st0" d="M48.06,62.22h1.77c0.7,0,1.05-0.06,1.33-0.32c0.44-0.4,0.46-1.05,0.46-2.17v-2.55c0-0.57,0.04-1.31-0.34-1.79
		c-0.46-0.59-1.35-0.51-1.49-0.51h-3.47v13.45h1.73V62.22z M48.08,56.51h1.09c0.55,0,0.67,0.17,0.67,0.67v2.86
		c0,0.46-0.15,0.59-0.63,0.59h-1.12V56.51z"/>
	<polygon class="st0" points="57.41,66.66 54.48,66.66 54.48,54.87 52.7,54.87 52.7,68.32 57.41,68.32 	"/>
</g>
</svg>
