<?xml version="1.0" encoding="utf-8"?>
<!-- Generator: Adobe Illustrator 27.6.1, SVG Export Plug-In . SVG Version: 6.00 Build 0)  -->
<svg version="1.1" id="Layer_1" xmlns="http://www.w3.org/2000/svg" xmlns:xlink="http://www.w3.org/1999/xlink" x="0px" y="0px"
	 viewBox="0 0 204 72" style="enable-background:new 0 0 204 72;" xml:space="preserve">
<style type="text/css">
	.st0{fill:#FFFFFF;}
</style>
<g>
	<path class="st0" d="M47.09,32.83c0.74,1.09,2.36,2.33,5.43,2.33c2.04,0,3.36-0.58,4.07-1.05c1.56-1.05,1.97-2.54,2.1-3.22
		c0.12-0.57,0.12-1.11,0.12-1.31c0-1.72-0.66-2.86-1.09-3.37c-0.23-0.29-0.53-0.55-0.82-0.77c-0.36-0.26-0.66-0.41-0.82-0.5
		c-1.15-0.57-2.7-0.77-3.98-0.73c-1.39,0.06-2.89,0.41-4.01,1.27c-0.76,0.58-1.91,1.82-1.91,4.2
		C46.17,31.25,46.74,32.33,47.09,32.83z M50.88,26.39c0.64-0.28,1.25-0.32,1.49-0.34c1.07-0.03,2.17,0.34,2.89,1.12
		c0.86,0.95,0.92,2.07,0.92,2.51c0,0.64-0.18,2.64-2.2,3.37c-0.64,0.23-1.25,0.25-1.49,0.25c-1.27,0-2.06-0.44-2.47-0.79
		c-0.26-0.22-0.45-0.5-0.53-0.58c-0.23-0.32-0.32-0.51-0.39-0.7c-0.26-0.61-0.28-1.28-0.28-1.49
		C48.82,29.06,48.97,27.24,50.88,26.39z"/>
	<polygon class="st0" points="63.21,30.84 66.66,30.84 66.66,29 63.21,29 63.21,26.38 67.06,26.38 67.06,24.52 60.64,24.52 
		60.64,34.83 63.21,34.83 	"/>
	<rect x="73.64" y="24.52" class="st0" width="2.58" height="10.3"/>
	<polygon class="st0" points="80.94,27.6 87.3,34.83 89.84,34.83 89.84,24.52 87.39,24.52 87.39,31.72 81.07,24.52 78.49,24.52 
		78.49,34.83 80.94,34.83 	"/>
	<polygon class="st0" points="93.5,34.83 96.09,34.83 96.09,26.41 98.35,26.41 98.35,24.52 91.23,24.52 91.23,26.41 93.5,26.41 	"/>
	<polygon class="st0" points="107.27,32.99 102.29,32.99 102.29,30.54 106.74,30.54 106.74,28.7 102.29,28.7 102.29,26.38 
		106.98,26.38 106.98,24.52 99.7,24.52 99.7,34.83 107.27,34.83 	"/>
	<path class="st0" d="M111.51,30.68h7.61l2.74,4.14h3.05l-3.14-4.3c1.05-0.19,1.94-0.51,2.41-1.56c0.26-0.58,0.28-1.09,0.28-1.36
		c0-1.36-0.73-2.5-2.06-2.89c-0.42-0.13-0.82-0.19-1.71-0.19h-11.75v10.3h2.57V30.68z M111.51,26.33h8.72
		c0.53,0,1.09,0.03,1.42,0.53c0.19,0.29,0.2,0.67,0.2,0.77c0,0.85-0.6,1.11-0.9,1.18c-0.22,0.06-0.63,0.04-0.64,0.04h-8.79V26.33z"
		/>
	<path class="st0" d="M129.1,32.89h5.28l0.88,1.94h2.89l-4.98-10.3h-2.79l-4.98,10.3h2.82L129.1,32.89z M131.76,27.03l1.79,4.03
		h-3.62L131.76,27.03z"/>
	<path class="st0" d="M140.21,33.97c1.61,1.2,3.65,1.21,4.23,1.21c2.54,0,3.9-0.79,4.74-1.53c0.63-0.55,0.9-1.02,1.07-1.34
		c0.13-0.26,0.22-0.45,0.36-0.98l-2.71,0.03c-0.23,0.44-0.35,0.63-0.53,0.82c-0.41,0.48-1.21,1.11-2.71,1.11
		c-1.27,0-2.06-0.51-2.45-0.83c-0.34-0.26-0.55-0.53-0.64-0.66c-0.42-0.6-0.64-1.39-0.64-2.1c0-1.44,0.71-2.73,2.06-3.28
		c0.69-0.29,1.34-0.31,1.61-0.31c1.02,0,1.72,0.35,2.06,0.57c0.58,0.39,0.88,0.85,1.04,1.09l2.82-0.35
		c-0.06-0.15-0.13-0.29-0.2-0.44c-0.19-0.34-0.67-1.07-1.55-1.65c-1.61-1.08-3.59-1.12-4.16-1.12c-2.06,0-3.44,0.63-4.12,1.08
		c-0.2,0.13-0.38,0.25-0.73,0.58c-0.26,0.25-0.45,0.47-0.66,0.77c-0.58,0.88-0.83,1.97-0.83,3.02
		C138.25,30.42,138.34,32.58,140.21,33.97z"/>
	<polygon class="st0" points="153.14,34.83 155.74,34.83 155.74,26.41 158,26.41 158,24.52 150.88,24.52 150.88,26.41 153.14,26.41 
			"/>
	<rect x="159.37" y="24.52" class="st0" width="2.58" height="10.3"/>
	<polygon class="st0" points="170.25,34.83 174.88,24.52 172.11,24.52 169.01,32.13 165.93,24.52 163.09,24.52 167.74,34.83 	"/>
	<polygon class="st0" points="189.84,32.99 178.64,32.99 178.64,30.54 189.31,30.54 189.31,28.7 178.64,28.7 178.64,26.38 
		189.55,26.38 189.55,24.52 176.06,24.52 176.06,34.83 189.84,34.83 	"/>
	<path class="st0" d="M58.46,37.75c-0.26-0.01-0.53-0.01-0.79-0.01H46.65v10.3h2.54v-3.88h8.25c0.9,0,1.96-0.03,2.76-0.51
		c0.35-0.22,0.57-0.47,0.67-0.58c0.23-0.26,0.34-0.48,0.39-0.63c0.28-0.6,0.29-1.25,0.29-1.47c0-0.9-0.26-1.53-0.45-1.84
		C60.54,38.14,59.53,37.82,58.46,37.75z M58.27,42.2c-0.35,0.15-0.88,0.15-1.25,0.15h-7.83v-2.83h8.28c0.35,0,0.47,0.01,0.64,0.07
		c0.83,0.25,0.88,1.15,0.88,1.37C58.99,41.21,58.97,41.91,58.27,42.2z"/>
	<path class="st0" d="M84.61,38.64c-0.36-0.26-0.66-0.41-0.82-0.5c-1.15-0.57-2.7-0.77-3.98-0.73c-1.39,0.06-2.89,0.41-4.01,1.27
		c-0.76,0.58-1.91,1.82-1.91,4.2c0,1.58,0.57,2.66,0.92,3.15c0.74,1.09,2.36,2.33,5.43,2.33c2.04,0,3.36-0.58,4.07-1.05
		c1.56-1.05,1.97-2.54,2.1-3.22c0.12-0.57,0.12-1.11,0.12-1.31c0-1.72-0.66-2.86-1.09-3.37C85.2,39.12,84.91,38.86,84.61,38.64z
		 M81.7,46.27c-0.64,0.23-1.25,0.25-1.49,0.25c-1.27,0-2.06-0.44-2.47-0.79c-0.26-0.22-0.45-0.5-0.53-0.58
		c-0.23-0.32-0.32-0.51-0.39-0.7c-0.26-0.61-0.28-1.28-0.28-1.49c0-0.69,0.15-2.51,2.06-3.36c0.64-0.28,1.25-0.32,1.49-0.34
		c1.07-0.03,2.17,0.34,2.89,1.12c0.86,0.95,0.92,2.07,0.92,2.51C83.9,43.54,83.72,45.54,81.7,46.27z"/>
	<path class="st0" d="M72.44,42.17c0.26-0.58,0.28-1.09,0.28-1.36c0-1.36-0.73-2.5-2.06-2.89c-0.42-0.13-0.82-0.19-1.71-0.19h-5.54
		v10.3h2.57v-4.14h1.39l2.74,4.14h3.05l-3.14-4.3C71.09,43.54,71.98,43.22,72.44,42.17z M69.2,42.03c-0.22,0.06-0.63,0.04-0.64,0.04
		h-2.58v-2.52h2.5c0.53,0,1.09,0.03,1.42,0.53c0.19,0.29,0.2,0.67,0.2,0.77C70.11,41.69,69.51,41.95,69.2,42.03z"/>
	<path class="st0" d="M100.78,38.55c-1.12-0.7-2.2-0.82-3.49-0.82h-9.53v10.3h9.2c1.33,0,1.87-0.06,2.51-0.25
		c1.02-0.29,1.63-0.82,1.93-1.09c0.63-0.58,1.52-1.74,1.52-3.85c0-1.3-0.38-2.69-1.3-3.63C101.27,38.86,100.94,38.65,100.78,38.55z
		 M100.34,42.77c0,2.03-0.77,2.92-1.68,3.24c-0.63,0.23-1.44,0.2-1.59,0.2h-6.75v-6.65h6.86c0.8,0,1.12,0.06,1.5,0.19
		c0.35,0.13,0.6,0.31,0.7,0.39C100.35,40.96,100.34,42.52,100.34,42.77z"/>
	<path class="st0" d="M113.22,44.17c0,0.5-0.06,0.67-0.18,0.9c-0.1,0.19-0.34,0.55-0.82,0.82c-0.72,0.41-1.74,0.41-1.93,0.41
		c-0.23,0-1.42,0.03-2.23-0.55c-0.7-0.5-0.82-1.15-0.82-1.94v-6.07h-2.57v5.98c0,1.12,0.07,1.59,0.29,2.1
		c0.36,0.85,1.24,1.91,3.3,2.36c0.89,0.19,1.68,0.2,2.01,0.2c1.42,0,3.25-0.34,4.36-1.33c0.32-0.29,0.53-0.6,0.61-0.73
		c0.51-0.83,0.53-1.63,0.53-2.6v-6h-2.57V44.17z"/>
	<path class="st0" d="M126.72,45.38c-0.41,0.48-1.21,1.11-2.71,1.11c-1.27,0-2.06-0.51-2.45-0.83c-0.34-0.26-0.55-0.53-0.64-0.66
		c-0.42-0.6-0.64-1.39-0.64-2.1c0-1.44,0.71-2.73,2.06-3.28c0.69-0.29,1.34-0.31,1.61-0.31c1.02,0,1.72,0.35,2.06,0.57
		c0.58,0.39,0.88,0.85,1.04,1.09l2.82-0.35c-0.06-0.15-0.13-0.29-0.2-0.44c-0.19-0.34-0.67-1.07-1.55-1.65
		c-1.61-1.08-3.59-1.12-4.16-1.12c-2.06,0-3.44,0.63-4.12,1.08c-0.2,0.13-0.38,0.25-0.73,0.58c-0.26,0.25-0.45,0.47-0.66,0.77
		c-0.58,0.88-0.83,1.97-0.83,3.02c0,0.76,0.09,2.92,1.96,4.3c1.61,1.2,3.65,1.21,4.23,1.21c2.54,0,3.9-0.79,4.74-1.53
		c0.63-0.55,0.9-1.02,1.07-1.34c0.13-0.26,0.22-0.45,0.36-0.98l-2.71,0.03C127.01,45,126.9,45.19,126.72,45.38z"/>
	<polygon class="st0" points="130.22,39.62 134.05,39.62 134.05,48.04 136.64,48.04 136.64,39.62 140.45,39.62 140.45,37.74 
		130.22,37.74 	"/>
	<path class="st0" d="M145.7,39.31c0.39-0.06,0.7-0.06,0.86-0.06c0.9,0,2.1,0.16,2.74,0.9c0.06,0.06,0.13,0.16,0.23,0.34l2.44-0.61
		c-0.23-0.39-0.36-0.6-0.7-0.93c-0.53-0.53-1.02-0.76-1.28-0.88c-0.73-0.35-1.66-0.66-3.41-0.66c-1.84,0-2.9,0.44-3.56,0.89
		c-0.41,0.28-1.25,0.96-1.25,2.33c0,1.56,1.15,2.23,1.62,2.45c0.83,0.39,1.85,0.54,3.75,0.83c0.93,0.15,1.61,0.25,1.93,0.5
		c0.22,0.16,0.34,0.41,0.34,0.69c0,0.51-0.36,0.8-0.5,0.89c-0.7,0.48-2,0.47-2.1,0.47c-1.25,0-2.85-0.32-3.46-1.61l-2.35,0.6
		c0.07,0.15,0.15,0.29,0.25,0.44c0.1,0.18,0.51,0.77,1.08,1.23c0.31,0.23,0.6,0.41,0.71,0.47c0.73,0.39,1.75,0.77,3.59,0.77
		c0.36,0,0.73-0.01,1.09-0.04c0.58-0.06,1.14-0.13,1.71-0.31c2.1-0.67,2.44-2.15,2.44-3.08c0.01-1.91-1.47-2.44-2.07-2.64
		c-0.35-0.12-0.67-0.19-1.4-0.32c-0.74-0.15-2.58-0.41-3.31-0.63c-0.45-0.15-0.82-0.36-0.82-0.89
		C144.26,39.43,145.62,39.33,145.7,39.31z"/>
	<polygon class="st0" points="49.23,61.25 49.23,57.26 60.45,57.26 60.45,55.43 49.23,55.43 49.23,52.8 60.86,52.8 60.86,50.95 
		46.66,50.95 46.66,61.25 	"/>
	<path class="st0" d="M67.82,61.58c2.04,0,3.36-0.58,4.07-1.05c1.56-1.05,1.97-2.54,2.1-3.22c0.12-0.57,0.12-1.11,0.12-1.31
		c0-1.72-0.66-2.86-1.09-3.37c-0.23-0.29-0.53-0.55-0.82-0.77c-0.36-0.26-0.66-0.41-0.82-0.5c-1.15-0.57-2.7-0.77-3.98-0.73
		c-1.39,0.06-2.89,0.41-4.01,1.27c-0.76,0.58-1.91,1.82-1.91,4.2c0,1.58,0.57,2.66,0.92,3.15C63.13,60.34,64.75,61.58,67.82,61.58z
		 M66.18,52.81c0.64-0.28,1.25-0.32,1.49-0.34c1.07-0.03,2.17,0.34,2.89,1.12c0.86,0.95,0.92,2.07,0.92,2.51
		c0,0.64-0.18,2.64-2.2,3.37c-0.64,0.23-1.25,0.25-1.49,0.25c-1.27,0-2.06-0.44-2.47-0.79c-0.26-0.22-0.45-0.5-0.53-0.58
		c-0.23-0.32-0.32-0.51-0.39-0.7c-0.26-0.61-0.28-1.28-0.28-1.49C64.12,55.48,64.27,53.66,66.18,52.81z"/>
	<path class="st0" d="M78.51,57.1h1.39l2.74,4.14h3.05l-3.14-4.3c1.05-0.19,1.94-0.51,2.41-1.56c0.26-0.58,0.28-1.09,0.28-1.36
		c0-1.36-0.73-2.5-2.06-2.89c-0.42-0.13-0.82-0.19-1.71-0.19h-5.54v10.3h2.57V57.1z M78.51,52.76h2.5c0.53,0,1.09,0.03,1.42,0.53
		c0.19,0.29,0.2,0.67,0.2,0.77c0,0.85-0.6,1.11-0.9,1.18c-0.22,0.06-0.63,0.04-0.64,0.04h-2.58V52.76z"/>
	<polygon class="st0" points="106.86,59.41 94.89,59.41 94.89,56.96 106.34,56.96 106.34,55.12 94.89,55.12 94.89,52.8 106.57,52.8 
		106.57,50.95 92.31,50.95 92.31,61.25 106.86,61.25 	"/>
	<path class="st0" d="M116.35,61c1.02-0.29,1.63-0.82,1.93-1.09c0.63-0.58,1.52-1.74,1.52-3.85c0-1.3-0.38-2.69-1.3-3.63
		c-0.34-0.35-0.67-0.55-0.83-0.66c-1.12-0.7-2.2-0.82-3.49-0.82h-5.65v10.3h5.31C115.17,61.25,115.71,61.19,116.35,61z M111.1,52.77
		h2.98c0.8,0,1.12,0.06,1.5,0.19c0.35,0.13,0.6,0.31,0.7,0.39c0.96,0.82,0.95,2.38,0.95,2.63c0,2.03-0.77,2.92-1.68,3.24
		c-0.63,0.23-1.44,0.2-1.59,0.2h-2.86V52.77z"/>
	<path class="st0" d="M125.16,61.39c0.89,0.19,1.68,0.2,2.01,0.2c1.42,0,3.25-0.34,4.36-1.33c0.32-0.29,0.53-0.6,0.61-0.73
		c0.51-0.83,0.53-1.63,0.53-2.6v-6h-2.57v6.44c0,0.5-0.06,0.67-0.18,0.9c-0.1,0.19-0.34,0.55-0.82,0.82
		c-0.72,0.41-1.74,0.41-1.93,0.41c-0.23,0-1.42,0.03-2.23-0.55c-0.7-0.5-0.82-1.15-0.82-1.94v-6.07h-2.57v5.98
		c0,1.12,0.07,1.59,0.29,2.1C122.23,59.88,123.11,60.94,125.16,61.39z"/>
	<path class="st0" d="M136.44,60.39c1.61,1.2,3.65,1.21,4.23,1.21c2.54,0,3.9-0.79,4.74-1.53c0.63-0.55,0.9-1.02,1.07-1.34
		c0.13-0.26,0.22-0.45,0.36-0.98l-2.71,0.03c-0.23,0.44-0.35,0.63-0.53,0.82c-0.41,0.48-1.21,1.11-2.71,1.11
		c-1.27,0-2.06-0.51-2.45-0.83c-0.34-0.26-0.55-0.53-0.64-0.66c-0.42-0.6-0.64-1.39-0.64-2.1c0-1.44,0.71-2.73,2.06-3.28
		c0.69-0.29,1.34-0.31,1.61-0.31c1.02,0,1.72,0.35,2.06,0.57c0.58,0.39,0.88,0.85,1.04,1.09l2.82-0.35
		c-0.06-0.15-0.13-0.29-0.2-0.44c-0.19-0.34-0.67-1.07-1.55-1.65c-1.61-1.08-3.59-1.12-4.16-1.12c-2.06,0-3.44,0.63-4.12,1.08
		c-0.2,0.13-0.38,0.25-0.73,0.58c-0.26,0.25-0.45,0.47-0.66,0.77c-0.58,0.88-0.83,1.97-0.83,3.02
		C134.49,56.84,134.57,59,136.44,60.39z"/>
	<path class="st0" d="M150.64,59.31h5.28l0.88,1.94h2.89l-4.98-10.3h-2.79l-4.98,10.3h2.82L150.64,59.31z M153.3,53.46l1.79,4.03
		h-3.62L153.3,53.46z"/>
	<polygon class="st0" points="160.66,61.25 163.25,61.25 163.25,52.83 165.51,52.83 165.51,50.95 158.39,50.95 158.39,52.83 
		160.66,52.83 	"/>
	<rect x="166.88" y="50.95" class="st0" width="2.58" height="10.3"/>
	<path class="st0" d="M177.59,61.58c2.04,0,3.36-0.58,4.07-1.05c1.56-1.05,1.97-2.54,2.1-3.22c0.12-0.57,0.12-1.11,0.12-1.31
		c0-1.72-0.66-2.86-1.09-3.37c-0.23-0.29-0.53-0.55-0.82-0.77c-0.36-0.26-0.66-0.41-0.82-0.5c-1.15-0.57-2.7-0.77-3.98-0.73
		c-1.39,0.06-2.89,0.41-4.01,1.27c-0.76,0.58-1.91,1.82-1.91,4.2c0,1.58,0.57,2.66,0.92,3.15
		C172.91,60.34,174.53,61.58,177.59,61.58z M175.96,52.81c0.64-0.28,1.25-0.32,1.49-0.34c1.07-0.03,2.17,0.34,2.89,1.12
		c0.86,0.95,0.92,2.07,0.92,2.51c0,0.64-0.18,2.64-2.2,3.37c-0.64,0.23-1.25,0.25-1.49,0.25c-1.27,0-2.06-0.44-2.47-0.79
		c-0.26-0.22-0.45-0.5-0.53-0.58c-0.23-0.32-0.32-0.51-0.39-0.7c-0.26-0.61-0.28-1.28-0.28-1.49
		C173.9,55.48,174.04,53.66,175.96,52.81z"/>
	<polygon class="st0" points="188.15,54.03 194.52,61.25 197.06,61.25 197.06,50.95 194.6,50.95 194.6,58.14 188.29,50.95 
		185.7,50.95 185.7,61.25 188.15,61.25 	"/>
	<path class="st0" d="M202.88,49.31h-47.56V36.25h41.96V22.58h-73.9V9.29h-20.67V0.27H43.76v9H0.28v53.71H43.7V72H72v-9.01h130.87
		V49.31z M44.11,36.33h110.82v12.9H44.11V36.33z M196.89,22.96v12.9H44.11v-12.9h79.27H196.89z M122.99,22.58H44.11V9.67h78.88
		V22.58z M44.15,0.66h58.17v8.55H44.15V0.66z M0.67,9.66H43.7v13.3h0.01v12.98v0.31v13.06v0.31V62.6H0.67V9.66z M71.61,71.61H44.09
		v-8.55h27.52V71.61z M202.49,62.6H44.11V49.7h158.38V62.6z"/>
	<path class="st0" d="M48.45,2.19h-1.49v5.78h0.74V5.34h0.76c0.3,0,0.45-0.02,0.57-0.14c0.19-0.17,0.2-0.45,0.2-0.93v-1.1
		c0-0.25,0.02-0.56-0.15-0.77C48.9,2.15,48.51,2.19,48.45,2.19z M48.47,4.4c0,0.2-0.07,0.25-0.27,0.25h-0.48V2.89h0.47
		c0.24,0,0.29,0.07,0.29,0.29V4.4z"/>
	<path class="st0" d="M51.67,2.37c-0.29-0.23-0.63-0.23-0.75-0.23c-0.41,0-0.65,0.15-0.79,0.25c-0.45,0.34-0.45,0.84-0.45,1.36v2.88
		c0,0.33,0.01,0.43,0.06,0.61c0.12,0.45,0.47,0.65,0.62,0.7c0.2,0.07,0.42,0.07,0.48,0.07c0.17,0,0.92,0.01,1.17-0.67
		c0.08-0.22,0.1-0.46,0.1-0.68V3.92c0-0.65-0.01-0.95-0.17-1.24C51.9,2.62,51.82,2.49,51.67,2.37z M50.88,7.39
		c-0.39,0-0.44-0.29-0.44-0.61V3.69c0-0.43-0.02-0.67,0.19-0.8c0.11-0.07,0.24-0.08,0.28-0.08c0.2,0,0.3,0.1,0.35,0.17
		c0.09,0.14,0.09,0.36,0.09,0.71V6.6C51.34,6.95,51.37,7.39,50.88,7.39z"/>
	<path class="st0" d="M54.22,4.92c-0.11-0.17-0.23-0.34-0.34-0.51c-0.25-0.4-0.38-0.67-0.38-1.15c0-0.27,0.01-0.59,0.38-0.59
		c0.32,0,0.29,0.33,0.3,0.39v1.02h0.7V3.06c0-0.23-0.02-0.33-0.06-0.43c-0.18-0.56-0.76-0.56-0.92-0.56c-0.33,0-0.53,0.08-0.65,0.16
		c-0.24,0.14-0.52,0.47-0.52,1.11c0,0.67,0.32,1.16,0.44,1.36c0.22,0.37,0.48,0.7,0.7,1.08c0.21,0.36,0.28,0.59,0.28,1.01
		c0,0.26,0.01,0.67-0.37,0.68c-0.12,0-0.2-0.05-0.23-0.07c-0.12-0.08-0.16-0.2-0.16-0.48V5.85h-0.7v0.96c0,0.34,0.02,0.65,0.25,0.92
		c0.12,0.15,0.38,0.34,0.84,0.34c0.25,0,0.41-0.05,0.51-0.09c0.65-0.29,0.64-1.16,0.64-1.28c0-0.34-0.05-0.77-0.45-1.4
		C54.39,5.16,54.31,5.04,54.22,4.92z"/>
	<polygon class="st0" points="55.24,2.87 56.11,2.87 56.11,7.96 56.89,7.96 56.89,2.87 57.79,2.87 57.79,2.19 55.24,2.19 	"/>
	<path class="st0" d="M59.25,5.59h0.47V6.9c0,0.16-0.01,0.35-0.16,0.46c-0.09,0.06-0.18,0.06-0.22,0.06
		c-0.2,0.01-0.29-0.11-0.32-0.18c-0.05-0.1-0.06-0.28-0.06-0.52V3.4c0-0.19-0.02-0.45,0.16-0.57c0.04-0.03,0.11-0.07,0.23-0.07
		c0.34-0.01,0.34,0.31,0.34,0.4c0,0.06,0.01,0.12,0.01,0.18v0.65h0.7V3.39c0-0.49-0.03-0.68-0.19-0.89
		c-0.27-0.38-0.7-0.38-0.84-0.38c-0.72,0-0.97,0.44-1.06,0.71c-0.08,0.23-0.1,0.44-0.1,0.92v2.9c0,0.43,0.02,0.88,0.38,1.19
		c0.25,0.2,0.52,0.21,0.64,0.21c0.43,0,0.61-0.21,0.71-0.36l0.07,0.27h0.46V4.89h-1.22V5.59z"/>
	<path class="st0" d="M63.38,4.16V3.31c0-0.52-0.06-0.74-0.23-0.92c-0.13-0.13-0.35-0.2-0.65-0.2h-1.4v5.78h0.76V5.29h0.25
		l0.64,2.68h0.78l-0.7-2.77C63.26,5.09,63.38,4.86,63.38,4.16z M62.62,3.98c0,0.52-0.07,0.61-0.41,0.61h-0.34V2.88h0.42
		c0.13,0,0.2,0.02,0.25,0.05c0.03,0.02,0.06,0.1,0.07,0.15c0.01,0.06,0.02,0.17,0.02,0.34V3.98z"/>
	<path class="st0" d="M64.53,2.19l-0.82,5.78h0.74l0.13-1.06h0.87l0.15,1.06h0.74l-0.89-5.78H64.53z M64.67,6.2l0.32-3l0.37,3H64.67
		z"/>
	<path class="st0" d="M68.75,2.36c-0.23-0.2-0.56-0.17-0.64-0.17h-1.4v5.78h1.46c0.17,0,0.65,0.03,0.78-0.52
		c0.02-0.11,0.04-0.24,0.04-0.47V3.12C68.99,2.84,68.99,2.56,68.75,2.36z M68.22,6.93c0,0.27-0.07,0.32-0.25,0.32h-0.51V2.89h0.44
		c0.07,0,0.27-0.01,0.3,0.23c0.01,0.06,0.01,0.11,0.01,0.17V6.93z"/>
	<path class="st0" d="M71.28,6.6c0,0.38-0.01,0.59-0.17,0.73c-0.11,0.09-0.25,0.09-0.29,0.09c-0.47,0-0.46-0.44-0.46-0.77V2.19
		h-0.74v4.51c0,0.35,0.03,0.52,0.1,0.68c0.24,0.64,0.88,0.68,1.08,0.68c0.23,0,0.96-0.04,1.17-0.8c0.07-0.27,0.07-0.64,0.07-0.69
		V2.19h-0.75V6.6z"/>
	<path class="st0" d="M73.22,2.19l-0.82,5.78h0.74l0.13-1.06h0.87l0.15,1.06h0.74l-0.89-5.78H73.22z M73.36,6.2l0.32-3l0.37,3H73.36
		z"/>
	<polygon class="st0" points="75.17,2.87 76.05,2.87 76.05,7.96 76.82,7.96 76.82,2.87 77.72,2.87 77.72,2.19 75.17,2.19 	"/>
	<polygon class="st0" points="78.15,7.96 80.06,7.96 80.06,7.23 78.93,7.23 78.93,5.32 79.93,5.32 79.93,4.6 78.92,4.6 78.92,2.91 
		80.06,2.91 80.06,2.19 78.15,2.19 	"/>
	<path class="st0" d="M83.53,4.92c-0.11-0.17-0.23-0.34-0.34-0.51c-0.25-0.4-0.38-0.67-0.38-1.15c0-0.27,0.01-0.59,0.38-0.59
		c0.32,0,0.29,0.33,0.3,0.39v1.02h0.7V3.06c0-0.23-0.02-0.33-0.06-0.43c-0.18-0.56-0.76-0.56-0.92-0.56c-0.33,0-0.53,0.08-0.65,0.16
		c-0.24,0.14-0.52,0.47-0.52,1.11c0,0.67,0.32,1.16,0.44,1.36c0.22,0.37,0.48,0.7,0.7,1.08c0.21,0.36,0.28,0.59,0.28,1.01
		c0,0.26,0.01,0.67-0.37,0.68c-0.12,0-0.2-0.05-0.23-0.07c-0.12-0.08-0.16-0.2-0.16-0.48V5.85h-0.7v0.96c0,0.34,0.02,0.65,0.25,0.92
		c0.12,0.15,0.38,0.34,0.84,0.34c0.25,0,0.41-0.05,0.51-0.09c0.65-0.29,0.64-1.16,0.64-1.28c0-0.34-0.05-0.77-0.45-1.4
		C83.7,5.16,83.62,5.04,83.53,4.92z"/>
	<polygon class="st0" points="84.54,2.87 85.42,2.87 85.42,7.96 86.19,7.96 86.19,2.87 87.09,2.87 87.09,2.19 84.54,2.19 	"/>
	<path class="st0" d="M89.17,6.6c0,0.38-0.01,0.59-0.17,0.73c-0.11,0.09-0.25,0.09-0.29,0.09c-0.47,0-0.46-0.44-0.46-0.77V2.19H87.5
		v4.51c0,0.35,0.03,0.52,0.1,0.68c0.24,0.64,0.88,0.68,1.08,0.68c0.23,0,0.96-0.04,1.17-0.8c0.07-0.27,0.07-0.64,0.07-0.69V2.19
		h-0.75V6.6z"/>
	<path class="st0" d="M92.6,2.36c-0.23-0.2-0.56-0.17-0.64-0.17h-1.4v5.78h1.46c0.17,0,0.65,0.03,0.78-0.52
		c0.02-0.11,0.04-0.24,0.04-0.47V3.12C92.85,2.84,92.84,2.56,92.6,2.36z M92.08,6.93c0,0.27-0.07,0.32-0.25,0.32h-0.51V2.89h0.44
		c0.07,0,0.27-0.01,0.3,0.23c0.01,0.06,0.01,0.11,0.01,0.17V6.93z"/>
	<rect x="93.44" y="2.19" class="st0" width="0.75" height="5.78"/>
	<polygon class="st0" points="94.85,7.96 96.76,7.96 96.76,7.23 95.63,7.23 95.63,5.32 96.64,5.32 96.64,4.6 95.62,4.6 95.62,2.91 
		96.76,2.91 96.76,2.19 94.85,2.19 	"/>
	<path class="st0" d="M98.7,4.92c-0.11-0.17-0.23-0.34-0.34-0.51c-0.25-0.4-0.38-0.67-0.38-1.15c0-0.27,0.01-0.59,0.38-0.59
		c0.32,0,0.29,0.33,0.3,0.39v1.02h0.7V3.06c0-0.23-0.02-0.33-0.06-0.43c-0.18-0.56-0.76-0.56-0.92-0.56c-0.33,0-0.53,0.08-0.65,0.16
		c-0.24,0.14-0.52,0.47-0.52,1.11c0,0.67,0.32,1.16,0.44,1.36c0.22,0.37,0.48,0.7,0.7,1.08c0.21,0.36,0.28,0.59,0.28,1.01
		c0,0.26,0.01,0.67-0.37,0.68c-0.12,0-0.2-0.05-0.23-0.07c-0.12-0.08-0.16-0.2-0.16-0.48V5.85h-0.7v0.96c0,0.34,0.02,0.65,0.25,0.92
		c0.12,0.15,0.38,0.34,0.84,0.34c0.25,0,0.41-0.05,0.51-0.09c0.65-0.29,0.64-1.16,0.64-1.28c0-0.34-0.05-0.77-0.45-1.4
		C98.87,5.16,98.79,5.04,98.7,4.92z"/>
	<path class="st0" d="M51.85,21.55c1.33,0,1.87-0.06,2.51-0.25c1.02-0.29,1.63-0.82,1.93-1.09c0.63-0.58,1.52-1.74,1.52-3.85
		c0-1.3-0.38-2.69-1.3-3.63c-0.34-0.35-0.67-0.55-0.83-0.66c-1.12-0.7-2.2-0.82-3.49-0.82h-5.65v10.3H51.85z M49.11,13.07h2.98
		c0.8,0,1.12,0.06,1.5,0.19c0.35,0.13,0.6,0.31,0.7,0.39c0.96,0.82,0.95,2.38,0.95,2.63c0,2.03-0.77,2.92-1.68,3.24
		c-0.63,0.23-1.44,0.2-1.59,0.2h-2.86V13.07z"/>
	<path class="st0" d="M74.95,21.33v-1.39c0-0.12-0.1-0.22-0.22-0.22H62.2v-2.45h12c0.12,0,0.22-0.1,0.22-0.22v-1.39
		c0-0.12-0.1-0.22-0.22-0.22h-12V13.1h12.23c0.12,0,0.22-0.1,0.22-0.22v-1.4c0-0.12-0.1-0.22-0.22-0.22H59.61v10.3h15.11
		C74.85,21.55,74.95,21.45,74.95,21.33z"/>
	<path class="st0" d="M76.04,19.41c0.1,0.18,0.51,0.77,1.08,1.23c0.31,0.23,0.6,0.41,0.71,0.47c0.73,0.39,1.75,0.77,3.59,0.77
		c0.36,0,0.73-0.01,1.09-0.04c0.58-0.06,1.14-0.13,1.71-0.31c2.1-0.67,2.44-2.15,2.44-3.08c0.01-1.91-1.47-2.44-2.07-2.64
		c-0.35-0.12-0.67-0.19-1.4-0.32c-0.74-0.15-2.58-0.41-3.31-0.63c-0.45-0.15-0.82-0.36-0.82-0.89c0-1.02,1.36-1.12,1.44-1.14
		c0.39-0.06,0.7-0.06,0.86-0.06c0.9,0,2.1,0.16,2.74,0.9c0.04,0.04,0.09,0.1,0.15,0.2c0.05,0.08,0.15,0.12,0.24,0.1l1.98-0.5
		c0.15-0.04,0.22-0.21,0.14-0.34c-0.15-0.24-0.29-0.42-0.54-0.67c-0.53-0.53-1.02-0.76-1.28-0.88c-0.73-0.35-1.66-0.66-3.41-0.66
		c-1.84,0-2.9,0.44-3.56,0.89c-0.41,0.28-1.25,0.96-1.25,2.33c0,1.56,1.15,2.23,1.62,2.45c0.83,0.39,1.85,0.54,3.75,0.83
		c0.93,0.15,1.61,0.25,1.93,0.5c0.22,0.16,0.34,0.41,0.34,0.69c0,0.51-0.36,0.8-0.5,0.89c-0.7,0.48-2,0.47-2.1,0.47
		c-1.2,0-2.72-0.3-3.38-1.45c-0.05-0.09-0.15-0.13-0.25-0.11l-1.9,0.48c-0.14,0.04-0.21,0.2-0.14,0.33
		C75.96,19.29,76,19.35,76.04,19.41z"/>
	<path class="st0" d="M88.7,21.55h2.13c0.12,0,0.22-0.1,0.22-0.22v-9.85c0-0.12-0.1-0.22-0.22-0.22H88.7c-0.12,0-0.22,0.1-0.22,0.22
		v9.85C88.47,21.45,88.57,21.55,88.7,21.55z"/>
	<path class="st0" d="M94.87,20.71c0.77,0.57,1.98,1.15,4.17,1.15c0.36,0,0.76-0.01,1.14-0.07c1.4-0.19,2.32-0.74,2.76-1.09
		c0,0,0,0,0,0c0.15-0.11,0.36-0.01,0.36,0.17v0.47c0,0.12,0.1,0.22,0.22,0.22h1.52c0.12,0,0.22-0.1,0.22-0.22v-5.07
		c0-0.12-0.1-0.22-0.22-0.22h-5.08c-0.12,0-0.22,0.1-0.22,0.22v1.4c0,0.12,0.1,0.22,0.22,0.22h2.81c0.17,0,0.28,0.17,0.2,0.32
		c-0.07,0.15-0.18,0.32-0.34,0.51c-0.77,0.88-2.12,1.26-3.24,1.26c-0.6,0-2.85-0.1-3.65-2.16c-0.25-0.63-0.26-1.2-0.26-1.43
		c0-0.98,0.34-1.69,0.54-2.01c0.7-1.11,2.03-1.56,3.28-1.56c0.92,0,1.87,0.22,2.55,0.8c0.2,0.17,0.38,0.39,0.49,0.52
		c0.05,0.06,0.13,0.09,0.2,0.08l2.39-0.33c0.16-0.02,0.25-0.2,0.16-0.34c-0.15-0.24-0.3-0.45-0.51-0.7
		c-1.75-1.93-4.48-1.94-5.18-1.94c-1.5,0-2.92,0.22-4.22,1.04c-0.34,0.22-0.7,0.51-0.98,0.8c-0.45,0.48-1.39,1.75-1.39,3.62
		c0,0.6,0.1,1.12,0.15,1.34C93.33,19.47,94.27,20.27,94.87,20.71z"/>
	<path class="st0" d="M107.52,21.55h2c0.12,0,0.22-0.1,0.22-0.22v-6.4c0-0.21,0.26-0.3,0.39-0.15l5.9,6.7
		c0.04,0.05,0.1,0.08,0.17,0.08h2.21c0.12,0,0.22-0.1,0.22-0.22v-9.85c0-0.12-0.1-0.22-0.22-0.22h-2c-0.12,0-0.22,0.1-0.22,0.22
		v6.37c0,0.21-0.26,0.3-0.39,0.15l-5.86-6.67c-0.04-0.05-0.1-0.08-0.17-0.08h-2.26c-0.12,0-0.22,0.1-0.22,0.22v9.85
		C107.3,21.45,107.4,21.55,107.52,21.55z"/>
	<path class="st0" d="M10.59,30.48c0.23-0.15,0.6-0.3,0.83-0.53v-0.23h-0.08l-0.45-0.08c-0.3,0-0.68,0-0.75,0.3
		C10.07,30.17,10.52,30.25,10.59,30.48z"/>
	<path class="st0" d="M33.09,30.48c-0.08,0.3-0.08,0.68-0.15,0.9h0.83c0-0.3,0.08-0.68,0.08-0.9c-0.15-0.08-0.3-0.15-0.38-0.23
		C33.31,30.4,33.24,30.48,33.09,30.48z"/>
	<path class="st0" d="M14.28,26.41h-3.46v1.13h4.21c0-4.29,2.71-7.9,6.24-8.5l-0.08-1.05C17.59,18.67,14.66,22.13,14.28,26.41z"/>
	<path class="st0" d="M30,51.31H15.03v-0.45h-4.74v1.2h5.57v5.79H29.1v-5.79h5.64v-1.2H30V51.31z M27.14,52.06h0.6l0.23,2.78h-0.98
		L27.14,52.06z M24.59,52.06h0.6l0.23,2.78h-0.98L24.59,52.06z M22.18,52.06h0.6l0.23,2.78h-0.9L22.18,52.06z M19.7,52.06h0.6
		l0.23,2.78h-0.98L19.7,52.06z M17.29,52.06h0.6l0.23,2.78h-0.98L17.29,52.06z M18.19,57.18h-1.28V56.8h1.28V57.18z M18.34,56.58
		h-1.43V55h1.43V56.58z M20.67,57.18H19.4V56.8h1.28V57.18z M20.75,56.58h-1.43V55h1.43V56.58z M23.16,57.18h-1.28V56.8h1.28V57.18z
		 M23.23,56.58H21.8V55h1.43V56.58z M25.64,57.18h-1.28V56.8h1.28V57.18z M25.64,56.58h-1.43V55h1.43V56.58z M28.05,57.18h-1.28
		V56.8h1.28V57.18z M28.12,56.58h-1.43V55h1.43V56.58z"/>
	<rect x="10.29" y="47.78" class="st0" width="4.74" height="2.48"/>
	<path class="st0" d="M13.68,27.84h-2.03c0.15,0.08,0.23,0.15,0.3,0.23c0.23,0.23,0.45,0.3,0.6,0.3h0.15c0.3,0,0.38-0.15,0.68-0.3
		L13.68,27.84z"/>
	<path class="st0" d="M11.87,29.95c0,0.23,0.75,0.3,0.9,0.53c0.15-0.15,0.9-0.3,0.9-0.53c0-0.23-0.38-0.3-0.9-0.3
		C12.25,29.65,11.87,29.65,11.87,29.95z"/>
	<path class="st0" d="M34.21,27.99c-0.83,0.08-1.05,0.6-1.65,0.68v0.68c0.3,0,0.68,0,0.83,0.15l0.08-0.08h0.15
		c0-0.3,0.08-0.53,0.15-0.68c0,0.15-0.08,0.3,0.08,0.45c0.08,0.08,0.08,0.15,0.15,0.15l0.23,0.15l0.23,0.08h0.68
		c0.08-0.08,0.15-0.15,0.23-0.3C35.34,28.52,34.97,27.99,34.21,27.99z"/>
	<path class="st0" d="M13.23,31.38h0.83c0-0.3,0.08-0.68,0.08-0.9c-0.15-0.08-0.3-0.15-0.38-0.23c-0.08,0.15-0.23,0.23-0.38,0.23
		C13.3,30.78,13.3,31.15,13.23,31.38z"/>
	<polygon class="st0" points="23.31,18.97 23.76,14.98 21.28,14.98 21.8,18.97 	"/>
	<rect x="30" y="47.78" class="st0" width="4.74" height="2.48"/>
	<path class="st0" d="M10.29,29.5h0.45l0.38-0.23c0.08,0,0.08-0.08,0.15-0.15c0.15-0.15,0.08-0.3,0.08-0.45
		c0.08,0.15,0.15,0.38,0.15,0.68h0.08l0.08,0.08c0.15-0.15,0.53-0.15,0.83-0.15v-0.68c-0.6-0.08-0.9-0.6-1.65-0.68
		c-0.75-0.08-1.13,0.53-0.83,1.2c0.08,0.15,0.15,0.23,0.23,0.3C10.37,29.5,10.37,29.5,10.29,29.5z"/>
	<polygon class="st0" points="14.43,46.87 10.9,46.87 10.29,47.48 15.03,47.48 	"/>
	<path class="st0" d="M16.16,19.19c-1.43,1.5-2.48,3.54-2.93,5.72h-2.86v0.98h3.54c0.3-2.26,1.28-4.36,2.78-5.94
		c1.28-1.35,2.86-2.18,4.51-2.48l-0.15-0.98C19.25,16.78,17.52,17.76,16.16,19.19z"/>
	<path class="st0" d="M15.63,29.27c0.08-0.75-0.38-1.28-1.13-1.28c-0.83,0.08-1.05,0.6-1.65,0.68v0.68c0.3,0,0.68,0,0.83,0.15
		l0.08-0.08h0.15c0-0.3,0.08-0.53,0.15-0.68c0,0.15-0.08,0.3,0.08,0.45c0.08,0.08,0.08,0.15,0.15,0.15l0.23,0.15l0.23,0.08h0.68
		C15.48,29.5,15.56,29.42,15.63,29.27z"/>
	<polygon class="st0" points="30.6,46.87 30,47.48 34.74,47.48 34.14,46.87 	"/>
	<path class="st0" d="M34.14,29.72c-0.23,0-0.3,0-0.45,0.08h-0.08v0.3c0.23,0.15,0.6,0.3,0.75,0.45c0.08-0.23,0.53-0.3,0.45-0.53
		C34.82,29.72,34.44,29.72,34.14,29.72z"/>
	<path class="st0" d="M15.11,30.02c0-0.3-0.38-0.3-0.68-0.3c-0.23,0-0.3,0-0.45,0.08H13.9v0.3c0.23,0.15,0.6,0.3,0.75,0.45
		C14.73,30.32,15.18,30.25,15.11,30.02z"/>
	<path class="st0" d="M10.67,32.13c0,0.15,0.08,0.3,0.3,0.3h3.46c0.15,0,0.3-0.08,0.3-0.3c0-0.08-0.15-0.3-0.38-0.3h-3.39
		C10.82,31.83,10.67,31.98,10.67,32.13z"/>
	<path class="st0" d="M10.97,46.57h3.46c0.15,0,0.3-0.08,0.3-0.3c0-0.15-0.15-0.3-0.38-0.3h-3.39c-0.15,0-0.3,0.15-0.3,0.3
		C10.67,46.42,10.75,46.57,10.97,46.57z"/>
	<path class="st0" d="M12.48,30.7c0,0-0.08-0.08-0.15-0.08c0,0.23,0.08,0.45,0.08,0.75H13c0-0.3,0.08-0.53,0.08-0.75
		C13,30.7,12.93,30.7,12.93,30.7l-0.23,0.23L12.48,30.7z"/>
	<path class="st0" d="M11.2,30.63c0.08,0.23,0.08,0.6,0.08,0.9h0.83c0-0.3-0.08-0.68-0.15-0.9c-0.15-0.15-0.3-0.23-0.38-0.3
		C11.42,30.4,11.27,30.55,11.2,30.63z"/>
	<rect x="10.97" y="32.88" class="st0" width="3.31" height="12.64"/>
	<path class="st0" d="M15.86,50.18H29.1V28.29H15.86V50.18z M25.86,29.5h2.11v4.51h-2.11V29.5z M25.86,34.54h2.11v4.44h-2.11V34.54z
		 M25.86,39.5h2.11v4.51h-2.11V39.5z M25.86,44.54h2.11v4.44h-2.11V44.54z M23.23,29.5h2.11v4.51h-2.11V29.5z M23.23,34.54h2.11
		v4.44h-2.11V34.54z M23.23,39.5h2.11v4.51h-2.11V39.5z M23.23,44.54h2.11v4.44h-2.11V44.54z M19.7,29.5h2.11v4.51H19.7V29.5z
		 M19.7,34.54h2.11v4.44H19.7V34.54z M19.7,39.58h2.11v4.44H19.7V39.58z M19.7,44.54h2.11v4.44H19.7V44.54z M17.06,29.5h2.11v4.51
		h-2.11V29.5z M17.06,34.54h2.11v4.44h-2.11V34.54z M17.06,39.58h2.11v4.44h-2.11V39.58z M17.06,44.54h2.11v4.44h-2.11V44.54z"/>
	<path class="st0" d="M30.23,30.48c0.3-0.15,0.68-0.3,0.83-0.53v-0.23h-0.08l-0.45-0.08c-0.3,0-0.68,0-0.75,0.3
		C29.7,30.17,30.15,30.25,30.23,30.48z"/>
	<path class="st0" d="M30.9,30.55c0.08,0.23,0.08,0.6,0.08,0.9h0.83c0-0.3-0.08-0.68-0.15-0.9c-0.15-0.08-0.3-0.15-0.38-0.23
		C31.13,30.4,30.98,30.48,30.9,30.55z"/>
	<path class="st0" d="M33.39,27.84h-1.96c0.15,0.08,0.23,0.15,0.3,0.23c0.15,0.23,0.3,0.3,0.53,0.3h0.15c0.3,0,0.38-0.15,0.68-0.3
		L33.39,27.84z"/>
	<path class="st0" d="M22.48,19.87c-3.61,0-6.62,3.46-6.62,7.67H29.1C29.1,23.33,26.17,19.87,22.48,19.87z M21.8,26.26h-4.74
		c0.38-2.71,2.41-4.81,4.74-5.12V26.26z M23.23,21.22c2.48,0.3,4.36,2.41,4.74,5.12h-4.74V21.22z"/>
	<path class="st0" d="M32.41,29.65c-0.53,0-0.9,0-0.9,0.3c0,0.23,0.75,0.3,0.9,0.53c0.15-0.15,0.9-0.3,0.9-0.53
		C33.31,29.72,32.94,29.65,32.41,29.65z"/>
	<path class="st0" d="M33.99,31.83H30.6c-0.15,0-0.3,0.15-0.3,0.3c0,0.15,0.08,0.3,0.3,0.3h3.46c0.15,0,0.3-0.08,0.3-0.3
		C34.36,32.06,34.21,31.83,33.99,31.83z"/>
	<path class="st0" d="M30.3,46.27c0,0.15,0.08,0.3,0.3,0.3h3.46c0.15,0,0.3-0.08,0.3-0.3c0-0.15-0.15-0.3-0.38-0.3H30.6
		C30.45,45.97,30.3,46.12,30.3,46.27z"/>
	<rect x="30.68" y="32.88" class="st0" width="3.31" height="12.64"/>
	<path class="st0" d="M32.71,30.63c-0.08,0.08-0.08,0.08-0.15,0.08l-0.23,0.23l-0.23-0.23c0,0-0.08-0.08-0.15-0.08
		c0,0.23,0.08,0.45,0.08,0.75h0.6C32.63,31.08,32.71,30.85,32.71,30.63z"/>
	<path class="st0" d="M31.13,25.89h3.54v-0.98h-2.86c-0.45-2.18-1.43-4.21-2.93-5.72c-1.35-1.43-3.08-2.41-4.89-2.71l-0.15,0.98
		c1.65,0.3,3.16,1.2,4.51,2.48C29.85,21.52,30.83,23.63,31.13,25.89z"/>
	<path class="st0" d="M32.18,28.59c-0.6-0.08-0.83-0.6-1.65-0.68c-0.75-0.08-1.13,0.53-0.83,1.2c0.08,0.15,0.15,0.23,0.23,0.3
		c0.08,0.08,0.08,0.08,0,0.08h0.45l0.38-0.23c0.08,0,0.08-0.08,0.15-0.15c0.15-0.15,0.08-0.3,0.08-0.45
		c0.08,0.15,0.15,0.38,0.15,0.68h0.15l0.08,0.08c0.15-0.15,0.53-0.15,0.83-0.15V28.59z"/>
	<path class="st0" d="M29.93,27.47h4.21v-1.13h-3.46c-0.3-4.21-3.23-7.67-6.85-8.35l-0.15,0.98C27.22,19.64,29.93,23.18,29.93,27.47
		z"/>
	<path class="st0" d="M7.34,20.37c-0.01-0.04,0.07-0.24,0.1-0.27c0.54,0.39,0.88,0.44,1.09,0.32c-0.08-0.45-0.08-1.4,0.41-1.13
		c-0.08-0.56,0.4-0.58,0.73-0.48c-0.38-0.04-0.65,0.09-0.46,0.5c0.15-0.08,0.49-0.04,0.64-0.04v0.23c-0.38-0.08-0.74,0.1-1.19,0.25
		c0.08,0.9,0.97,0.36,0.74,0.21c0.96,0.07-0.47,1.55-1.89,0.34c0.11,0.36,0.7,0.91,1.58,1.13c0.11,0.03,0.57,0.1,0.72,0.16
		c0.16,0.07,0.28,0.19,0.17,0.43c0.15,0.15,0.17,0.11,0.32,0.19l0.3-0.08c-0.38-0.38-1.05-1.65-0.15-1.65
		c-0.15-0.23,0.13-0.93,0.58-0.32c0.06-0.29,0.05-0.46-0.13-0.74c0,0,0.45-0.01,0.59-0.35c0.18-0.43-0.55-0.75-0.55-0.75
		c0.62-0.16,0.5,0.38,0.8,0.28c-0.14-0.27,0.43,0.15,0.38,0c0.08-0.3-0.3-0.45-0.38-0.45c-0.08-0.15,0-0.3,0.15-0.38
		c-0.08,0-0.15,0-0.3,0.08c-0.24-1.77,2.99-1.22,2.56-0.3c0.75-0.38,0.45-1.28,0-1.58c-0.01,0.39-0.41-0.34-1.38-0.11
		c0.12,0.17-0.3,0.1-0.76,0.25c0.25,0.23-0.64,0.69-0.64,0.69c0-0.3,0.79-1.06,0.33-1.43c-0.35-0.28-0.54,0.14-1.18-0.26
		c-0.54-0.34-0.82,0.6-0.14,0.57c-0.16,0.12-0.36,0.52,0.23,0.71c-0.51,0.4-0.71-0.15-0.71-0.15c0.08,0,0.33-0.12,0.18-0.27
		c-0.23-0.15-0.38,0-0.45,0.23c-0.83,0-1.43-0.6-2.33,0c-0.6,0.45-0.68,1.43,0.08,1.73c0.83,0.3,1.65-0.75,0.83-0.75
		c-0.04,0-0.06,0-0.08,0c-0.23,0.15-0.3,0.3-0.23,0.53C7.18,17.64,8,16.47,8.73,17.05c1.02,0.82-2.87,1.86-1.29,2.67
		C7.31,19.88,7.23,20.2,7.34,20.37z M11.06,15.81c0.06,0,0.12,0,0.18-0.01c-0.03,0.06-0.07,0.13-0.1,0.19l-0.22-0.07
		C10.91,15.92,11.06,15.81,11.06,15.81z M10.17,17.05c0.03,0,0.06,0,0.08,0c0.19,0,0.38-0.06,0.56-0.18v0.79l0.22-0.11
		c0,0.06,0,0.13,0,0.2c-0.08,0.01-0.16,0.02-0.24,0.04L10,18.01C10.18,17.76,10.29,17.45,10.17,17.05z M9.78,18.39l0.93,0.41
		c0.05,0.02,0.1,0.05,0.14,0.08l-0.48,0.03v-0.17H9.84c0,0-0.14-0.01-0.16-0.01L9.78,18.39z M7.89,19.12
		c0.09-0.48,1.72-1.13,1.3-1.98c-0.23-0.47-0.85-0.75-1.75-0.2c0.76-0.96,1.74-0.57,2.12,0.06c0.54,0.91-0.84,1-0.84,1.9
		c-0.69-0.26-0.53,0.96-0.54,1.04c-0.04,0.37-0.59,0-0.59-0.37C7.81,19.57,8.34,19.49,7.89,19.12z"/>
	<path class="st0" d="M37.04,17.16c-0.01,0-0.04,0-0.08,0c-0.83,0,0,1.05,0.83,0.75c0.75-0.3,0.68-1.28,0.08-1.73
		c-0.9-0.6-1.5,0-2.33,0c-0.08-0.23-0.23-0.38-0.45-0.23c-0.15,0.15,0.11,0.27,0.18,0.27c0,0-0.2,0.55-0.71,0.15
		c0.59-0.19,0.4-0.59,0.23-0.71c0.68,0.03,0.4-0.91-0.14-0.57c-0.63,0.4-0.83-0.02-1.18,0.26c-0.46,0.37,0.33,1.13,0.33,1.43
		c0,0-0.89-0.46-0.64-0.69c-0.46-0.15-0.88-0.08-0.76-0.25c-0.98-0.23-1.38,0.51-1.38,0.11c-0.45,0.3-0.75,1.2,0,1.58
		c-0.43-0.92,2.8-1.47,2.56,0.3c-0.15-0.08-0.23-0.08-0.3-0.08c0.15,0.08,0.23,0.23,0.15,0.38c-0.08,0-0.45,0.15-0.38,0.45
		c-0.05,0.15,0.51-0.27,0.38,0c0.3,0.1,0.18-0.44,0.8-0.28c0,0-0.73,0.32-0.55,0.75c0.14,0.34,0.59,0.35,0.59,0.35
		c-0.18,0.28-0.19,0.46-0.13,0.74c0.44-0.61,0.73,0.09,0.58,0.32c0.9,0,0.23,1.28-0.15,1.65l0.3,0.08c0.15-0.08,0.17-0.04,0.32-0.19
		c-0.11-0.24,0.01-0.36,0.17-0.43c0.15-0.06,0.61-0.13,0.72-0.16c0.88-0.22,1.47-0.78,1.58-1.13c-1.42,1.21-2.85-0.27-1.89-0.34
		c-0.23,0.15,0.67,0.7,0.74-0.21c-0.45-0.15-0.82-0.32-1.19-0.25v-0.23c0.15,0,0.49-0.04,0.64,0.04c0.18-0.4-0.09-0.54-0.46-0.5
		c0.33-0.09,0.81-0.08,0.73,0.48c0.49-0.27,0.49,0.68,0.41,1.13c0.21,0.12,0.55,0.07,1.09-0.32c0.02,0.03,0.11,0.23,0.1,0.27
		c0.1-0.16,0.03-0.49-0.1-0.65c1.58-0.81-2.31-1.85-1.29-2.67c0.73-0.58,1.55,0.59,0.84,0.64C37.34,17.46,37.27,17.31,37.04,17.16z
		 M34.13,17.75c0-0.07,0-0.14,0-0.2l0.22,0.11v-0.79c0.18,0.12,0.37,0.18,0.56,0.18c0.03,0,0.06,0,0.08,0
		c-0.12,0.4-0.01,0.72,0.17,0.96l-0.79-0.21C34.28,17.78,34.2,17.76,34.13,17.75z M35.31,18.73h-0.53v0.15l-0.48-0.01
		c0.05-0.03,0.1-0.06,0.14-0.08l0.91-0.41l0.07,0.34C35.42,18.73,35.31,18.73,35.31,18.73z M35.97,17.13
		c-0.42,0.86,1.21,1.5,1.3,1.98c-0.45,0.38,0.08,0.45,0.3,0.45c0,0.37-0.55,0.74-0.59,0.37c-0.01-0.08,0.16-1.3-0.54-1.04
		c0-0.9-1.39-0.99-0.84-1.9c0.38-0.63,1.36-1.02,2.12-0.06C36.82,16.38,36.2,16.67,35.97,17.13z"/>
	<path class="st0" d="M9.01,24.38c0.17-0.1-0.01-0.32-0.25-0.58c0.25,0.18,0.53,0.33,0.7,0.35c0.83,0.08,0.53-0.3,0-0.38
		c-0.53-0.15-0.83-0.45-0.9-0.9c-0.26,0-0.38,0.07-0.4,0.17c-0.11-0.52,0.79-0.96,1.03-0.55c-0.02,0.03-0.03,0.05-0.05,0.07
		c-0.19,0.75,1.69,1.13,1.69,0.19c-0.28,0.38-0.56,0.47-1.03,0.28c0.92,0,0.28-0.99-0.29-0.81c0.03-0.17,0.07-0.34,0.34-0.33
		c-0.07-0.13-0.14-0.2-0.26-0.27c-0.31-0.12-0.42,0-0.42,0.42c-0.03-0.03-0.06-0.04-0.08-0.04c0-0.03,0-0.07,0-0.11
		c-1.68,0.33-2.46,1.47-0.54,2.84c0.19,0.13,0.36,0.3,0.39,0.54c0.15,0.9-1.35,1.2-1.35,0.15c0.83,0.98,1.43-0.3,0.68-0.53
		c-0.61-0.17-1.37,0.32-0.98,1.05c0.8,1.5,3.29-0.31,2.18-1.43L9.01,24.38z M8.5,24.03c-0.37-0.33-0.57-0.64-0.54-0.86l0.12,0
		c0.07,0.26,0.22,0.54,0.51,0.77L8.5,24.03z"/>
	<path class="st0" d="M29.82,18.36c-0.3,0.23,0.3,0.98,0.83,0.83c-0.53-0.53,0.9-0.89,1.27-0.89c-0.68,0.31-1.51,1.19-0.62,1.24
		c-0.5,0.5,1.21,1.73,1.82,1.96c0,0.04,0,0.06,0.01,0.1c0.2,0.27,0.93,0.53,0.57,0.85c0-0.21-0.46-0.55-0.79-0.63
		c-1.08-0.24-1.28,1.34-0.38,1.96c0.36,0.25,1.2,0.41,1.35,0c-0.75,0.02-1.16-0.61-1.12-0.97c0.66,1.21,1.72,0.59,1.72,0.59
		c-0.3,0-0.38-0.15-0.38-0.45c-0.23,0.23-0.53,0-0.68-0.23c0.25,0.12,0.4,0.05,0.65,0.02c0.19-0.23,0.24-0.57,0.01-0.98
		c0,0,0.63,0.04,0.77-0.62c-0.28,0.04-0.41-0.27-0.3-0.6c-0.33,0.09-0.47-0.14-0.46-0.17c-0.23,0.09-0.74,0.52-0.74,0.69
		c0.16,0.1,0.56,0.08,0.56,0.08c-0.47,0.26-1.03-0.11-1.03-0.11c0-0.15,0.14-0.19,0.23-0.03c0.01-0.46,1.54-1.34,0.02-1.45
		c0.23,0.38-0.34-0.02,0,0c-0.14-0.22-0.15-0.45,0-0.6l-0.53,0.3c0.3-0.3,0.38-0.68,0.3-1.05c-0.23,0.15-0.23,0.3-0.23,0.53
		c-0.68-0.23-0.6,0.75-0.6,1.13c0,0.23-0.75-0.11-0.6-0.33c0.3,0,0.53-0.12,0.3-0.49c0.12-0.41,1.39-1.09,1.26-1.71
		c-0.06-0.28-0.32-0.49-0.58-0.47c0,0,0,0-0.01,0c0,0,0,0,0,0c-0.42,0-0.79,0.67-0.12,0.67c-0.38,0.15-0.6,0.08-0.83-0.23
		c0,0.5,0.47,0.66,0.8,0.5c-0.16,0.25-0.77,0.29-1.16,0.14c0-0.38-0.58-0.48-0.81-0.48v-0.53c-0.22-0.15-1.41,0.58,0.18,1.19
		c-0.21-0.07-0.88-0.16-1.16-0.44c-0.07,0.15-0.06,0.29,0.08,0.38c-0.83-0.04-0.2-1.38-1.05-1.43c0,0,0.68-0.6,0.3-0.6
		c-0.07-0.22,0.27-0.48,0.44-0.19c0.36-0.1,0.09,0.78,0.61,0.42c0,0.3-0.57,0.34-0.6,0.08c-0.22,0.38,0.53,0.45,0.83,0.15
		c0.3-0.3,0.15-0.75-0.23-0.98c-0.68-0.3-1.43-0.15-1.81,0.45C27.94,16.63,28.47,18.21,29.82,18.36z M32.6,19.97
		c0.08,0.11,0.2,0.21,0.35,0.26c-0.05,0.05-0.09,0.11-0.13,0.16c-0.1,0.03-0.2,0.08-0.27,0.15c-0.07-0.05-0.15-0.11-0.22-0.17
		C32.48,20.29,32.58,20.14,32.6,19.97z"/>
	<path class="st0" d="M36.89,24.91c-0.75,0.23-0.15,1.5,0.68,0.53c0,1.05-1.5,0.75-1.35-0.15c0.03-0.25,0.21-0.41,0.39-0.54
		c1.92-1.37,1.13-2.51-0.54-2.84c0,0.04,0,0.08,0,0.11c-0.02,0-0.05,0.01-0.08,0.04c0-0.42-0.11-0.54-0.42-0.42
		c-0.12,0.07-0.19,0.14-0.26,0.27c0.27-0.01,0.3,0.16,0.34,0.33c-0.57-0.18-1.21,0.81-0.29,0.81c-0.47,0.19-0.75,0.09-1.03-0.28
		c0,0.94,1.88,0.56,1.69-0.19c-0.02-0.03-0.03-0.05-0.05-0.07c0.24-0.41,1.14,0.03,1.03,0.55c-0.02-0.1-0.14-0.17-0.4-0.17
		c-0.08,0.45-0.38,0.75-0.9,0.9c-0.53,0.08-0.83,0.45,0,0.38c0.17-0.02,0.44-0.17,0.7-0.35c-0.24,0.26-0.41,0.48-0.25,0.58
		l-0.45,0.15c-1.11,1.12,1.38,2.93,2.18,1.43C38.26,25.23,37.51,24.74,36.89,24.91z M37.07,23.16l0.12,0
		c0.03,0.23-0.17,0.54-0.54,0.86l-0.09-0.1C36.85,23.69,37,23.42,37.07,23.16z"/>
	<path class="st0" d="M14,17.94c-0.39,0.15-1,0.11-1.16-0.14c0.33,0.16,0.8,0,0.8-0.5c-0.23,0.3-0.45,0.38-0.83,0.23
		c0.67,0,0.3-0.67-0.12-0.67c0,0,0,0,0,0c0,0,0,0-0.01,0c-0.26-0.02-0.52,0.19-0.58,0.47c-0.13,0.62,1.14,1.29,1.27,1.71
		c-0.23,0.38,0,0.49,0.3,0.49c0.15,0.23-0.6,0.56-0.6,0.33c0-0.38,0.08-1.35-0.6-1.13c0-0.23,0-0.38-0.23-0.53
		c-0.08,0.38,0,0.75,0.3,1.05l-0.53-0.3c0.15,0.15,0.14,0.38,0,0.6c0.34-0.02-0.23,0.38,0,0c-1.52,0.1,0.01,0.99,0.02,1.45
		c0.09-0.16,0.23-0.12,0.23,0.03c0,0-0.56,0.36-1.03,0.11c0,0,0.4,0.02,0.56-0.08c0-0.17-0.51-0.6-0.74-0.69
		c0.01,0.03-0.13,0.26-0.46,0.17c0.11,0.33-0.02,0.64-0.3,0.6c0.14,0.66,0.77,0.62,0.77,0.62c-0.23,0.4-0.17,0.75,0.01,0.98
		c0.25,0.03,0.4,0.11,0.65-0.02c-0.15,0.23-0.45,0.45-0.68,0.23c0,0.3-0.08,0.45-0.38,0.45c0,0,1.06,0.62,1.72-0.59
		c0.04,0.35-0.38,0.99-1.12,0.97c0.15,0.41,0.99,0.25,1.35,0c0.9-0.61,0.7-2.2-0.38-1.96c-0.33,0.07-0.79,0.41-0.79,0.63
		c-0.36-0.32,0.37-0.59,0.57-0.85c0.01-0.04,0-0.07,0.01-0.1c0.61-0.23,2.32-1.46,1.82-1.96c0.89-0.05,0.06-0.93-0.62-1.24
		c0.38,0,1.8,0.37,1.27,0.89c0.53,0.15,1.13-0.6,0.83-0.83c1.35-0.15,1.88-1.73,1.88-2.41c-0.38-0.6-1.13-0.75-1.81-0.45
		c-0.38,0.23-0.53,0.68-0.23,0.98c0.3,0.3,1.05,0.23,0.83-0.15c-0.03,0.26-0.6,0.23-0.6-0.08c0.53,0.37,0.25-0.52,0.61-0.42
		c0.16-0.29,0.51-0.03,0.44,0.19c-0.38,0,0.3,0.6,0.3,0.6c-0.86,0.05-0.22,1.39-1.05,1.43c0.14-0.09,0.15-0.23,0.08-0.38
		c-0.28,0.28-0.95,0.36-1.16,0.44c1.6-0.61,0.41-1.34,0.18-1.19v0.53C14.58,17.46,14,17.57,14,17.94z M12.6,20.54
		c-0.08-0.07-0.17-0.12-0.27-0.15c-0.04-0.06-0.09-0.11-0.13-0.16c0.14-0.05,0.26-0.14,0.35-0.26c0.03,0.16,0.12,0.31,0.26,0.4
		c0,0,0.01,0,0.01,0.01C12.75,20.43,12.67,20.49,12.6,20.54z"/>
	<polygon class="st0" points="48.51,69.64 47.38,69.64 47.38,67.72 48.39,67.72 48.39,67 47.38,67 47.38,65.31 48.51,65.31 
		48.51,64.59 46.61,64.59 46.61,70.37 48.51,70.37 	"/>
	<path class="st0" d="M50.01,70.47c0.25,0,0.41-0.05,0.51-0.09c0.65-0.29,0.64-1.16,0.64-1.28c0-0.34-0.05-0.77-0.45-1.4
		c-0.08-0.13-0.16-0.25-0.25-0.38c-0.11-0.17-0.23-0.34-0.34-0.51c-0.25-0.4-0.38-0.67-0.38-1.15c0-0.27,0.01-0.59,0.38-0.59
		c0.32,0,0.29,0.33,0.3,0.39v1.02h0.7v-1.02c0-0.23-0.02-0.33-0.06-0.43c-0.18-0.56-0.76-0.56-0.92-0.56
		c-0.33,0-0.53,0.08-0.65,0.16c-0.24,0.14-0.52,0.47-0.52,1.11c0,0.67,0.32,1.16,0.44,1.36c0.22,0.37,0.48,0.7,0.7,1.08
		c0.21,0.36,0.28,0.59,0.28,1.01c0,0.26,0.01,0.67-0.37,0.68c-0.12,0-0.2-0.05-0.23-0.07c-0.12-0.08-0.16-0.2-0.16-0.48v-1.06h-0.7
		v0.96c0,0.34,0.02,0.65,0.25,0.92C49.29,70.28,49.54,70.47,50.01,70.47z"/>
	<polygon class="st0" points="53.63,69.64 52.5,69.64 52.5,67.72 53.5,67.72 53.5,67 52.49,67 52.49,65.31 53.63,65.31 53.63,64.59 
		51.72,64.59 51.72,70.37 53.63,70.37 	"/>
	<polygon class="st0" points="56.14,69.65 54.88,69.65 54.88,64.59 54.12,64.59 54.12,70.37 56.14,70.37 	"/>
	<polygon class="st0" points="56.83,70.37 57.35,68.62 57.78,70.37 58.47,70.37 57.72,67.99 58.4,65.98 57.74,65.98 57.36,67.53 
		56.96,65.98 56.3,65.98 56.98,68.01 56.19,70.37 	"/>
	<rect x="60.29" y="67.64" class="st0" width="1.45" height="0.69"/>
	<rect x="63.78" y="64.59" class="st0" width="0.75" height="5.78"/>
	<path class="st0" d="M65.93,67.75h0.76c0.3,0,0.45-0.02,0.57-0.14c0.19-0.17,0.2-0.45,0.2-0.93v-1.1c0-0.25,0.02-0.56-0.15-0.77
		c-0.2-0.25-0.58-0.22-0.64-0.22h-1.49v5.78h0.74V67.75z M65.93,65.29h0.47c0.24,0,0.29,0.07,0.29,0.29v1.23
		c0,0.2-0.07,0.25-0.27,0.25h-0.48V65.29z"/>
	<polygon class="st0" points="69.94,69.65 68.68,69.65 68.68,64.59 67.92,64.59 67.92,70.37 69.94,70.37 	"/>
</g>
</svg>
